<?xml version="1.0" encoding="UTF-8"?> <svg xmlns="http://www.w3.org/2000/svg" xmlns:xlink="http://www.w3.org/1999/xlink" xmlns:xodm="http://www.corel.com/coreldraw/odm/2003" xml:space="preserve" width="177px" height="74px" version="1.1" style="shape-rendering:geometricPrecision; text-rendering:geometricPrecision; image-rendering:optimizeQuality; fill-rule:evenodd; clip-rule:evenodd" viewBox="0 0 177 74"> <defs> <style type="text/css"> .fil3 {fill:#FEFEFE} .fil1 {fill:#E31E24} .fil0 {fill:#2B2A29;fill-rule:nonzero} .fil2 {fill:#E31E24;fill-rule:nonzero} </style> </defs> <g id="Слой_x0020_1"> <metadata id="CorelCorpID_0Corel-Layer"></metadata> <path class="fil0" d="M68.7 37.09l0 1.16c0,1.78 -1.45,3.24 -3.24,3.24l-8.72 0 -3.24 0 0 -18.46c0,-1.78 1.46,-3.24 3.24,-3.24l11.69 0 0 1.16c0,1.78 -1.46,3.24 -3.24,3.24l-6.69 0 0 4.22 3.24 0 5.29 0 0 0.82c0,1.79 -1.46,3.24 -3.24,3.24l-5.29 0 0 4.62 3.24 0 6.96 0zm77.74 6.33l0 1.34c0,1.78 -1.47,3.24 -3.26,3.24l-1.62 0 0 -4.58 0 -14.73c0,-1.79 1.46,-3.25 3.25,-3.25l0.99 0 0.64 0 0 1.75c0.42,-0.55 0.98,-0.95 1.57,-1.29 0.88,-0.51 1.93,-0.76 3.15,-0.76 1.08,0 2.07,0.21 2.97,0.64 0.91,0.43 1.69,1.01 2.35,1.76 0.66,0.74 1.18,1.62 1.55,2.63 0.38,1 0.57,2.09 0.57,3.25 0,1.2 -0.18,2.31 -0.52,3.33 -0.35,1.02 -0.82,1.9 -1.43,2.65 -0.61,0.74 -1.34,1.32 -2.2,1.75 -0.61,0.31 -1.26,0.51 -1.94,0.59l-0.01 0 -0.01 0 -0.01 0.01 -0.01 0 -0.01 0 -0.01 0 -0.01 0 -0.01 0 -0.01 0 -0.01 0 -0.01 0.01 -0.01 0 -0.01 0 -0.01 0 0 0 -0.02 0 -0.01 0 -0.01 0 -0.01 0 -0.01 0 -0.01 0.01 -0.01 0 -0.01 0 0 0 -0.02 0 -0.01 0 -0.01 0 -0.01 0 0 0 -0.02 0 -0.01 0 -0.01 0.01 0 0 -0.02 0 -0.01 0 -0.01 0 -0.01 0 0 0 -0.02 0 -0.01 0 -0.01 0 0 0 -0.02 0 -0.01 0 -0.01 0 -0.01 0.01 0 0 -0.02 0 -0.01 0 -0.01 0 -0.01 0 -0.01 0 -0.01 0 -0.01 0 -0.01 0 -0.01 0 -0.01 0 -0.01 0 -0.01 0 -0.01 0 -0.01 0 -0.01 0 -0.01 0 -0.01 0 -0.01 0 -0.01 0 -0.01 0 -0.02 0 0 0 -0.01 0 -0.01 0 -0.01 0 -0.02 0 0 0 -0.01 0 -0.01 0 -0.02 0 0 0 -0.01 0 -0.01 0 -0.02 0 -0.01 0 -0.02 0 -0.03 0 -0.01 0 -0.01 0 -0.02 0 -0.02 0 0 0 -0.03 0 -0.02 0 -0.01 0 -0.01 0 -0.02 0 -0.03 0 0 0 -0.02 0 -0.02 0 -0.01 0 -0.02 0 -0.02 0 -0.02 0 0 0 -0.02 0 -0.03 0 0 0 -0.02 0 -0.02 -0.01 -0.02 0 0 0 -0.03 0 -0.02 0 0 0 -0.02 0 -0.02 0 -0.02 0 0 0 -0.03 -0.01 -0.02 0 0 0 -0.02 0 -0.02 0 -0.02 0 0 0 -0.02 -0.01 -0.03 0 0 0 -0.02 0 -0.02 0 -0.02 0 0 0 -0.02 0 -0.03 -0.01 0 0 -0.02 0 -0.02 0 -0.01 0 -0.01 0 -0.02 -0.01 -0.07 0 -0.01 -0.01 -0.01 0 -0.02 0 -0.02 0 0 0 -0.02 -0.01 -0.02 0 -0.01 0 -0.01 0 -0.02 0 -0.03 -0.01 0 0 -0.02 0 -0.02 0 -0.01 -0.01 -0.01 0 -0.02 0 -0.02 0 0 0 -0.02 -0.01 -0.02 0 -0.01 0 -0.01 0 -0.02 -0.01 -0.02 0 0 0 -0.02 -0.01 -0.03 0 0 0c-0.65,-0.12 -1.24,-0.34 -1.77,-0.64 -0.89,-0.51 -1.58,-1.22 -2.07,-2.14l0 4.53zm17.43 -6.51l0 0 0 -7.22 -3.24 0 -1.58 0 0 -1c0,-1.79 1.46,-3.25 3.25,-3.25l6.95 0 0 0 2.71 0 1.54 0 0 1.01c0,1.79 -1.46,3.24 -3.24,3.24l-1.01 0 0 0 -0.54 0 0 7.22 0 0 0 1.34c0,1.78 -1.45,3.24 -3.24,3.24l-1.6 0 0 -4.58zm-24.98 -6.12c0.26,0.84 0.39,1.72 0.39,2.63 0,0.29 -0.01,0.57 -0.03,0.84 -0.02,0.28 -0.05,0.52 -0.09,0.72l-3.37 0 -0.84 0 -7.62 0c0.08,1.08 0.48,1.9 1.18,2.46 0.7,0.56 1.5,0.84 2.39,0.84 0.71,0 1.4,-0.17 2.06,-0.52 0.17,-0.09 0.34,-0.2 0.48,-0.31 0.84,-0.63 1.83,-0.82 2.84,-0.54l2.15 0.61c-0.63,1.26 -1.61,2.29 -2.93,3.08 -1.32,0.8 -2.9,1.19 -4.75,1.19 -1.34,0 -2.55,-0.21 -3.61,-0.65 -1.07,-0.44 -1.98,-1.04 -2.72,-1.79 -0.74,-0.75 -1.3,-1.63 -1.69,-2.61 -0.38,-0.99 -0.58,-2.03 -0.58,-3.11 0,-1.16 0.2,-2.25 0.58,-3.28 0.39,-1.03 0.95,-1.93 1.68,-2.71 0.73,-0.77 1.63,-1.38 2.69,-1.83 1.07,-0.45 2.29,-0.67 3.65,-0.67 1.36,0 2.57,0.22 3.62,0.67 1.06,0.45 1.95,1.06 2.68,1.82 0.43,0.45 0.8,0.93 1.11,1.46l0.01 0.02 0 0 0.01 0.02 0.01 0.01 0 0.02 0.01 0 0.01 0.02 0.01 0.02 0 0 0.01 0.02 0.01 0.01 0 0.01 0.01 0.01 0.01 0.02 0 0.01 0.01 0.01 0.01 0.01 0 0.02 0.01 0.01 0 0.01 0.01 0.02 0.01 0.01 0 0.01 0.01 0.01 0.01 0.02 0 0 0.01 0.02 0.01 0.02 0.01 0.01 0 0.01 0.01 0.01 0.01 0.02 0 0 0.01 0.02 0.01 0.02 0 0.01 0.01 0.01 0 0.01 0.01 0.02 0 0 0.01 0.02 0.01 0.02 0 0 0.01 0.02 0.01 0.02 0 0.01 0.02 0.02 0 0.02 0 0 0.01 0.02 0.01 0.02 0.01 0.01 0 0.01 0.01 0.02 0.01 0.01 0 0.01 0.01 0.01 0 0.02 0.01 0.01 0 0.01 0.01 0.02 0.01 0.01 0 0.01 0.01 0.02 0 0.02 0 0 0.01 0.02 0.01 0.01 0 0.02 0.01 0 0.01 0.02 0 0.02 0 0 0.01 0.02 0.01 0.02 0 0.01 0.01 0.01 0.01 0.02 0 0.01 0 0.01 0.01 0.02 0.01 0.02 0 0 0.01 0.01 0 0.02 0.01 0.02 0 0 0.01 0.02 0 0.02 0.01 0.01 0 0.01 0 0.01 0.01 0 0 0.01 0 0.01 0 0 0.01 0.01 0 0.01 0 0 0 0.01 0.01 0.01 0 0.01 0 0 0 0.01 0.01 0 0 0.02 0 0.01 0.01 0 0 0 0 0.01 0 0.01 0.01 0.01 0 0.01 0 0 0 0.01 0 0 0.01 0.01 0 0.01 0.01 0.03 0 0 0 0.01 0.01 0.01 0 0.02 0 0.01 0.01 0 0 0.01 0.01 0.03 0 0 0.01 0.01 0 0.01 0 0.01 0 0.01 0.01 0.01 0 0 0 0 0 0.01 0 0.01 0.01 0.01 0 0.01 0 0 0 0.01 0 0 0.01 0.01 0 0.01 0 0.01 0 0 0.01 0.01 0 0 0 0.01 0 0.01 0 0.01 0.01 0 0 0.01 0 0.01zm-56.12 -5.35l3.61 0 -4.6 5.72 -1.65 2.05 6.77 8.28 -4.06 0c-1.02,0 -1.89,-0.42 -2.52,-1.2l-3.66 -4.52 -0.64 0 0 5.72 -1.57 0c-1.79,0 -3.25,-1.46 -3.25,-3.24l0 -12.81 1.58 0c1.78,0 3.24,1.46 3.24,3.25l0 2.77 0.55 0 3.62 -4.74c0.64,-0.83 1.54,-1.28 2.58,-1.28zm3.91 8.01c0,-1.1 0.2,-2.15 0.58,-3.16 0.39,-1.01 0.95,-1.9 1.68,-2.66 0.73,-0.76 1.63,-1.37 2.7,-1.82 1.06,-0.45 2.28,-0.67 3.64,-0.67 1.85,0 3.4,0.39 4.66,1.17 1.26,0.79 2.2,1.81 2.83,3.08l-2.89 0.87c-0.98,0.3 -1.94,0.15 -2.78,-0.43 -0.52,-0.36 -1.13,-0.54 -1.85,-0.54 -1.02,0 -1.87,0.38 -2.55,1.14 -0.68,0.75 -1.02,1.76 -1.02,3.02 0,0.63 0.09,1.21 0.28,1.73 0.18,0.52 0.43,0.96 0.76,1.33 0.32,0.36 0.7,0.65 1.14,0.85 0.44,0.21 0.9,0.31 1.39,0.31 0.61,0 1.16,-0.15 1.67,-0.44 0.08,-0.05 0.15,-0.09 0.22,-0.14 0.85,-0.58 1.82,-0.73 2.79,-0.43l2.87 0.89c-0.59,1.24 -1.53,2.26 -2.81,3.05 -1.29,0.8 -2.86,1.19 -4.71,1.19 -1.34,0 -2.55,-0.22 -3.61,-0.68 -1.07,-0.46 -1.97,-1.07 -2.72,-1.84 -0.74,-0.76 -1.3,-1.65 -1.69,-2.66 -0.38,-1 -0.58,-2.06 -0.58,-3.16zm33 8.04l-1.6 0c-1.78,0 -3.24,-1.46 -3.24,-3.24l0 -8.56 -1.69 0 -3.25 0 0 11.8 -1.6 0c-1.78,0 -3.24,-1.46 -3.24,-3.24l0 -12.81 3.24 0 8.14 0c1.79,0 3.24,1.46 3.24,3.25l0 12.8zm14.45 -9.54c-0.1,-1.02 -0.47,-1.82 -1.1,-2.41 -0.63,-0.59 -1.41,-0.89 -2.34,-0.89 -0.96,0 -1.75,0.3 -2.37,0.9 -0.62,0.6 -0.98,1.41 -1.08,2.4l6.89 0zm15.91 5.72c0.52,0 1.01,-0.12 1.44,-0.35 0.44,-0.24 0.82,-0.55 1.15,-0.93 0.32,-0.39 0.57,-0.85 0.74,-1.37 0.17,-0.51 0.26,-1.06 0.26,-1.63 0,-0.59 -0.09,-1.14 -0.29,-1.63 -0.19,-0.5 -0.46,-0.94 -0.79,-1.3 -0.34,-0.37 -0.74,-0.66 -1.22,-0.86 -0.48,-0.2 -0.99,-0.31 -1.54,-0.31 -0.55,0 -1.09,0.14 -1.61,0.41 -1.1,0.58 -1.74,1.64 -1.74,2.88l0 1.44c0,0.71 0.2,1.32 0.61,1.9 0.25,0.34 0.54,0.65 0.87,0.92 0.66,0.55 1.36,0.83 2.12,0.83z"></path> <path class="fil1" d="M42.15 5.84l-1.62 0 -9.73 0 -1.62 0c-5.36,0 -9.73,4.37 -9.73,9.73l0 0.81 11.35 0 0 31.62 1.62 0c5.36,0 9.73,-4.37 9.73,-9.73l0 -21.89 1.62 0c5.36,0 9.73,-4.37 9.73,-9.73l0 -0.81 -11.35 0zm-25.14 0l-1.62 0c-5.36,0 -9.73,4.37 -9.73,9.73l0 32.43 1.62 0c5.36,0 9.73,-4.37 9.73,-9.73l0 -32.43z"></path> <path class="fil2" d="M5.7 64.4l0 -9.75 2.25 0 0 9.75 -2.25 0zm6.62 -4.64l2.43 0 0 -2.57 2.19 0 0 7.21 -2.19 0 0 -2.75 -2.43 0 0 2.75 -2.18 0 0 -7.21 2.18 0 0 2.57zm10.37 4.64l-2.18 0 0 -5.3 -2.17 0 0 -1.91 6.51 0 0 1.91 -2.16 0 0 5.3zm6.62 0.13c-0.6,0 -1.14,-0.09 -1.62,-0.29 -0.48,-0.2 -0.89,-0.47 -1.22,-0.8 -0.34,-0.34 -0.59,-0.73 -0.77,-1.18 -0.17,-0.44 -0.26,-0.91 -0.26,-1.39 0,-0.52 0.09,-1.02 0.26,-1.48 0.18,-0.46 0.43,-0.87 0.76,-1.21 0.33,-0.35 0.73,-0.62 1.21,-0.83 0.49,-0.2 1.03,-0.3 1.64,-0.3 0.62,0 1.16,0.1 1.64,0.3 0.47,0.21 0.88,0.48 1.21,0.82 0.33,0.34 0.58,0.74 0.75,1.19 0.16,0.45 0.25,0.92 0.25,1.41 0,0.13 -0.01,0.26 -0.01,0.38 -0.01,0.12 -0.03,0.23 -0.05,0.32l-5.32 0c0.03,0.49 0.21,0.86 0.53,1.11 0.31,0.25 0.67,0.38 1.07,0.38 0.32,0 0.63,-0.08 0.93,-0.24 0.3,-0.15 0.5,-0.36 0.6,-0.63l1.86 0.52c-0.28,0.57 -0.72,1.03 -1.31,1.39 -0.6,0.36 -1.31,0.53 -2.15,0.53zm1.53 -4.42c-0.05,-0.45 -0.21,-0.82 -0.5,-1.08 -0.28,-0.27 -0.63,-0.4 -1.05,-0.4 -0.43,0 -0.79,0.14 -1.07,0.41 -0.28,0.27 -0.44,0.62 -0.48,1.07l3.1 0zm2.98 2.39c0.25,-0.01 0.45,-0.05 0.61,-0.13 0.16,-0.08 0.3,-0.22 0.4,-0.44 0.11,-0.21 0.19,-0.51 0.26,-0.89 0.07,-0.38 0.14,-0.88 0.22,-1.5l0.24 -2.35 5.38 0 0 7.21 -2.19 0 0 -5.33 -1.28 0 -0.11 0.81c-0.12,0.89 -0.26,1.62 -0.42,2.2 -0.16,0.58 -0.37,1.05 -0.63,1.4 -0.26,0.34 -0.58,0.59 -0.97,0.74 -0.39,0.15 -0.88,0.22 -1.45,0.23l-0.06 -1.95zm12.5 2.03c-0.6,0 -1.15,-0.09 -1.63,-0.29 -0.48,-0.2 -0.88,-0.47 -1.22,-0.8 -0.33,-0.34 -0.59,-0.73 -0.76,-1.18 -0.17,-0.44 -0.26,-0.91 -0.26,-1.39 0,-0.52 0.09,-1.02 0.26,-1.48 0.17,-0.46 0.43,-0.87 0.75,-1.21 0.33,-0.35 0.74,-0.62 1.22,-0.83 0.48,-0.2 1.03,-0.3 1.64,-0.3 0.61,0 1.16,0.1 1.63,0.3 0.48,0.21 0.88,0.48 1.21,0.82 0.33,0.34 0.58,0.74 0.75,1.19 0.17,0.45 0.25,0.92 0.25,1.41 0,0.13 0,0.26 -0.01,0.38 -0.01,0.12 -0.02,0.23 -0.04,0.32l-5.33 0c0.04,0.49 0.22,0.86 0.53,1.11 0.32,0.25 0.68,0.38 1.08,0.38 0.32,0 0.63,-0.08 0.93,-0.24 0.29,-0.15 0.49,-0.36 0.59,-0.63l1.87 0.52c-0.28,0.57 -0.72,1.03 -1.32,1.39 -0.59,0.36 -1.31,0.53 -2.14,0.53zm1.52 -4.42c-0.04,-0.45 -0.21,-0.82 -0.49,-1.08 -0.28,-0.27 -0.64,-0.4 -1.06,-0.4 -0.43,0 -0.78,0.14 -1.06,0.41 -0.28,0.27 -0.44,0.62 -0.49,1.07l3.1 0zm8.26 -2.92l2.35 0 -2.82 3.49 3.05 3.72 -2.52 0 -2.09 -2.57 -0.29 0 0 2.57 -2.17 0 0 -7.21 2.17 0 0 2.7 0.25 0 2.07 -2.7zm7.4 7.21l-2.18 0 0 -5.3 -2.17 0 0 -1.91 6.51 0 0 1.91 -2.16 0 0 5.3zm3.87 1.08c0.15,0.07 0.3,0.12 0.44,0.15 0.14,0.02 0.27,0.03 0.37,0.03 0.21,0 0.38,-0.09 0.52,-0.27 0.15,-0.18 0.26,-0.51 0.34,-0.99l-2.74 -7.21 2.26 0 1.68 5.33 1.44 -5.33 2.06 0 -2.65 8.11c-0.26,0.78 -0.61,1.35 -1.06,1.72 -0.45,0.37 -0.99,0.55 -1.62,0.55 -0.18,0 -0.36,-0.02 -0.54,-0.05 -0.18,-0.03 -0.35,-0.08 -0.5,-0.16l0 -1.88zm9.52 -0.95c-0.36,0 -0.69,-0.05 -1,-0.17 -0.31,-0.11 -0.57,-0.27 -0.79,-0.48 -0.22,-0.2 -0.39,-0.45 -0.52,-0.73 -0.13,-0.28 -0.19,-0.58 -0.19,-0.91 0,-0.35 0.07,-0.68 0.22,-0.97 0.15,-0.3 0.37,-0.55 0.64,-0.76 0.28,-0.21 0.6,-0.37 0.98,-0.49 0.37,-0.12 0.79,-0.18 1.25,-0.18 0.3,0 0.59,0.02 0.87,0.07 0.29,0.05 0.54,0.13 0.75,0.23l0 -0.33c0,-0.83 -0.48,-1.25 -1.45,-1.25 -0.39,0 -0.76,0.07 -1.12,0.2 -0.36,0.13 -0.73,0.33 -1.13,0.6l-0.64 -1.37c0.47,-0.32 0.97,-0.55 1.48,-0.71 0.51,-0.15 1.06,-0.23 1.63,-0.23 1.09,0 1.93,0.26 2.53,0.77 0.6,0.51 0.89,1.26 0.89,2.25l0 1.86c0,0.21 0.04,0.37 0.11,0.46 0.06,0.08 0.19,0.14 0.36,0.15l0 1.86c-0.19,0.04 -0.37,0.07 -0.52,0.09 -0.16,0.01 -0.3,0.02 -0.43,0.02 -0.41,0 -0.72,-0.08 -0.93,-0.24 -0.21,-0.16 -0.34,-0.39 -0.4,-0.68l-0.04 -0.33c-0.32,0.41 -0.7,0.73 -1.15,0.94 -0.44,0.22 -0.91,0.33 -1.4,0.33zm0.64 -1.57c0.24,0 0.47,-0.05 0.69,-0.13 0.23,-0.08 0.41,-0.19 0.56,-0.33 0.21,-0.16 0.32,-0.34 0.32,-0.52l0 -0.69c-0.2,-0.07 -0.4,-0.13 -0.63,-0.17 -0.22,-0.04 -0.43,-0.06 -0.62,-0.06 -0.41,0 -0.74,0.09 -1,0.27 -0.26,0.19 -0.39,0.43 -0.39,0.72 0,0.26 0.1,0.48 0.3,0.65 0.2,0.17 0.46,0.26 0.77,0.26zm5.17 -0.46c0.24,-0.01 0.45,-0.05 0.61,-0.13 0.16,-0.08 0.29,-0.22 0.4,-0.44 0.1,-0.21 0.19,-0.51 0.26,-0.89 0.07,-0.38 0.14,-0.88 0.21,-1.5l0.25 -2.35 5.38 0 0 7.21 -2.2 0 0 -5.33 -1.27 0 -0.11 0.81c-0.12,0.89 -0.26,1.62 -0.42,2.2 -0.16,0.58 -0.37,1.05 -0.63,1.4 -0.27,0.34 -0.59,0.59 -0.98,0.74 -0.39,0.15 -0.87,0.22 -1.45,0.23l-0.05 -1.95zm9.08 -5.31l2.18 0 0 2.17 1.43 0c0.44,0 0.83,0.06 1.19,0.17 0.35,0.11 0.65,0.28 0.91,0.49 0.25,0.21 0.45,0.47 0.59,0.77 0.14,0.31 0.2,0.66 0.2,1.04 0,0.4 -0.06,0.76 -0.19,1.08 -0.14,0.31 -0.33,0.58 -0.57,0.8 -0.24,0.22 -0.53,0.39 -0.88,0.51 -0.34,0.12 -0.72,0.18 -1.14,0.18l-3.72 0 0 -7.21zm3.42 5.52c0.26,0 0.47,-0.07 0.63,-0.21 0.15,-0.15 0.23,-0.35 0.23,-0.61 0,-0.27 -0.08,-0.48 -0.24,-0.63 -0.16,-0.15 -0.37,-0.23 -0.62,-0.23l-1.24 0 0 1.68 1.24 0zm6.67 -2.95l2.43 0 0 -2.57 2.18 0 0 7.21 -2.18 0 0 -2.75 -2.43 0 0 2.75 -2.18 0 0 -7.21 2.18 0 0 2.57zm6.6 4.64l0 -7.21 2.19 0 0 7.21 -2.19 0zm0 -8.04l0 -1.99 2.19 0 0 1.99 -2.19 0zm11.51 8.17c-0.54,0 -1.02,-0.11 -1.42,-0.34 -0.4,-0.23 -0.72,-0.55 -0.94,-0.96l0 4.09 -2.19 0 0 -10.13 1.91 0 0 1.17c0.26,-0.42 0.59,-0.74 0.99,-0.97 0.4,-0.22 0.87,-0.34 1.42,-0.34 0.49,0 0.93,0.1 1.34,0.29 0.41,0.19 0.76,0.45 1.06,0.79 0.29,0.33 0.53,0.73 0.7,1.18 0.17,0.45 0.25,0.94 0.25,1.46 0,0.54 -0.08,1.04 -0.23,1.5 -0.16,0.46 -0.37,0.85 -0.65,1.19 -0.27,0.33 -0.6,0.59 -0.99,0.79 -0.38,0.19 -0.8,0.28 -1.25,0.28zm-0.74 -1.85c0.24,0 0.46,-0.05 0.66,-0.16 0.19,-0.1 0.36,-0.24 0.51,-0.42 0.15,-0.17 0.26,-0.37 0.34,-0.61 0.08,-0.23 0.11,-0.48 0.11,-0.73 0,-0.27 -0.04,-0.51 -0.13,-0.74 -0.08,-0.22 -0.2,-0.41 -0.35,-0.58 -0.15,-0.16 -0.34,-0.29 -0.55,-0.38 -0.22,-0.1 -0.45,-0.14 -0.7,-0.14 -0.3,0 -0.59,0.09 -0.87,0.27 -0.28,0.17 -0.49,0.42 -0.64,0.72l0 1.48c0.15,0.37 0.37,0.67 0.67,0.92 0.3,0.25 0.62,0.37 0.95,0.37zm5.4 1.72l0 -7.21 2.2 0 0 7.21 -2.2 0zm0 -8.04l0 -1.99 2.2 0 0 1.99 -2.2 0zm4.18 8.04l0 -7.21 2.18 0 0 5.3 1.84 0 0 -5.3 2.2 0 0 5.3 1.83 0 0 -5.3 2.19 0 0 7.21 -10.24 0zm15.64 0.13c-0.6,0 -1.14,-0.09 -1.62,-0.29 -0.48,-0.2 -0.89,-0.47 -1.22,-0.8 -0.34,-0.34 -0.59,-0.73 -0.77,-1.18 -0.17,-0.44 -0.26,-0.91 -0.26,-1.39 0,-0.52 0.09,-1.02 0.26,-1.48 0.18,-0.46 0.43,-0.87 0.76,-1.21 0.33,-0.35 0.73,-0.62 1.21,-0.83 0.48,-0.2 1.03,-0.3 1.64,-0.3 0.62,0 1.16,0.1 1.64,0.3 0.47,0.21 0.88,0.48 1.21,0.82 0.33,0.34 0.57,0.74 0.74,1.19 0.17,0.45 0.26,0.92 0.26,1.41 0,0.13 -0.01,0.26 -0.02,0.38 0,0.12 -0.02,0.23 -0.04,0.32l-5.32 0c0.03,0.49 0.21,0.86 0.52,1.11 0.32,0.25 0.68,0.38 1.08,0.38 0.32,0 0.63,-0.08 0.93,-0.24 0.3,-0.15 0.5,-0.36 0.6,-0.63l1.86 0.52c-0.28,0.57 -0.72,1.03 -1.31,1.39 -0.6,0.36 -1.31,0.53 -2.15,0.53zm1.53 -4.42c-0.05,-0.45 -0.21,-0.82 -0.5,-1.08 -0.28,-0.27 -0.63,-0.4 -1.05,-0.4 -0.43,0 -0.79,0.14 -1.07,0.41 -0.28,0.27 -0.44,0.62 -0.48,1.07l3.1 0zm5.95 -0.35l2.43 0 0 -2.57 2.18 0 0 7.21 -2.18 0 0 -2.75 -2.43 0 0 2.75 -2.19 0 0 -7.21 2.19 0 0 2.57zm8.77 0l2.43 0 0 -2.57 2.19 0 0 7.21 -2.19 0 0 -2.75 -2.43 0 0 2.75 -2.18 0 0 -7.21 2.18 0 0 2.57zm7.87 1.95c-0.43,-0.15 -0.77,-0.39 -1.02,-0.73 -0.24,-0.34 -0.36,-0.79 -0.36,-1.36 0,-0.39 0.07,-0.73 0.2,-1.03 0.13,-0.3 0.32,-0.56 0.55,-0.77 0.24,-0.21 0.52,-0.37 0.84,-0.49 0.32,-0.11 0.67,-0.17 1.06,-0.17l3.61 0 0 7.24 -2.18 0 0 -2.35 -0.75 0 -1.45 2.35 -2.33 0 1.83 -2.69zm2.7 -1.25l0 -1.61 -1.12 0c-0.19,0 -0.36,0.07 -0.51,0.21 -0.15,0.15 -0.23,0.34 -0.23,0.6 0,0.25 0.07,0.44 0.22,0.58 0.14,0.15 0.31,0.22 0.52,0.22l1.12 0z"></path> <path class="fil3" d="M11.34 9.89c1.79,0 3.24,1.45 3.24,3.24 0,1.8 -1.45,3.25 -3.24,3.25 -1.79,0 -3.24,-1.45 -3.24,-3.25 0,-1.79 1.45,-3.24 3.24,-3.24z"></path> </g> </svg> 