<?xml version="1.0" encoding="UTF-8"?> <svg xmlns="http://www.w3.org/2000/svg" width="343" height="113" viewBox="0 0 343 113" fill="none"><path d="M51.8288 8.29102H60.9915V38.0379H51.8288V8.29102Z" fill="white"></path><path d="M45.6016 42.2541C45.6016 38.7022 48.481 35.8228 52.0329 35.8228H60.2993C63.8512 35.8228 66.7307 38.7022 66.7307 42.2541V65.1357C66.7307 68.6876 63.8512 71.567 60.2993 71.567H52.0329C48.481 71.567 45.6016 68.6876 45.6016 65.1356V42.2541Z" fill="white"></path><path d="M78.4275 9.44787L87.5277 10.5157L84.0611 40.0599L74.9609 38.9921L78.4275 9.44787Z" fill="white"></path><path d="M68.2847 42.4539C68.6987 38.9261 71.894 36.4019 75.4218 36.8158L83.6318 37.7792C87.1595 38.1931 89.6838 41.3884 89.2699 44.9162L86.6033 67.6418C86.1894 71.1696 82.994 73.6938 79.4663 73.2799L71.2563 72.3165C67.7285 71.9026 65.2043 68.7072 65.6182 65.1795L68.2847 42.4539Z" fill="white"></path><path d="M47.9325 7.21577C47.8808 7.3915 47.8394 13.8393 47.8291 21.1063L47.8187 34.3274C46.8483 34.8601 45.9746 35.4826 45.15 36.2295C43.2467 37.9454 42.4982 41.045 42.4982 42.2663C42.4982 42.2663 42.3933 47.0731 42.383 69.5357C42.3726 83.8732 42.4347 85.3155 42.5278 85.5532C42.6209 85.7703 42.8588 86.0494 43.045 86.1734C43.5518 86.4732 66.58 86.4732 67.0869 86.1734C67.2731 86.0494 67.511 85.7703 67.6041 85.5532C67.6972 85.3155 67.7592 83.8732 67.7489 69.5357C67.7385 47.0731 67.5755 42.2663 67.5755 42.2663C67.5755 39.6495 66.8851 37.9454 64.9819 36.2295C64.1572 35.4826 63.2835 34.8601 62.3131 34.3274L62.3028 21.0029C62.2924 13.6739 62.22 7.1951 62.1269 7.01937C61.7649 6.36813 57.4179 6.29577 53.3424 6.27509C48.5945 6.26476 48.2014 6.32678 47.9325 7.21577ZM57.2963 19.0285L52.8355 19.0285L52.8355 10.9397H57.2963V19.0285ZM57.3067 28.9418C57.2963 32.4668 57.3791 35.9917 57.4929 36.2088C57.6273 36.5292 57.8756 36.7153 58.7238 37.1495C60.9995 38.3072 62.7462 40.5214 62.7462 42.4405C62.7462 42.4405 62.7218 44.0753 62.7424 68.8224L62.7528 81.0385H47.3791L47.3791 75.5597H50.2134C54.3302 75.5391 58.186 75.4667 58.3308 75.384C58.4963 75.3013 58.7031 75.0532 58.8066 74.8258C59.0342 74.3089 59.0755 47.8253 58.8376 47.2567C58.7445 47.0396 58.5066 46.7605 58.3101 46.6468C58.0722 46.4918 55.106 46.4194 50.1616 46.4194L47.3687 46.3987C47.3843 42.7981 47.2779 45.7955 47.5602 42.2043C47.8187 39.6495 49.7712 38.0285 51.3563 37.1805C52.3804 36.6326 52.5045 36.5292 52.67 36.1158C52.7734 35.847 52.8458 32.3324 52.8458 28.8591L52.8355 23.9386H57.2963L57.3067 28.9418ZM49.4065 51.4225H53.9863V70.6496H47.3791C47.3791 67.112 47.4308 51.4742 47.4308 51.4742C47.4618 51.4432 47.4308 51.4742 49.4065 51.4225Z" fill="#11222C"></path><path d="M75.9542 8.73904C75.8839 8.90814 75.1476 15.3127 74.3539 22.5348L72.9183 35.6754C71.897 36.1003 70.962 36.6249 70.0624 37.2784C67.9868 38.779 66.9091 41.7793 66.7774 42.9933L64.3088 64.7259C62.7528 78.9761 62.865 78.6096 62.9319 78.856C63.0009 79.0818 63.2072 79.3849 63.3787 79.5282C63.8499 79.8808 86.7244 82.3617 87.2601 82.1184C87.4585 82.0151 87.7249 81.7633 87.8408 81.5576C87.9589 81.3313 87.97 81.7111 89.5054 67.4587L91.6873 45.695C91.9694 43.0939 91.4674 41.3257 89.7618 39.415C89.0232 38.5838 88.2225 37.8709 87.316 37.2369L88.7422 23.9914C89.522 16.7054 90.1485 10.2577 90.075 10.073C89.7856 9.38672 85.4754 8.84647 81.4293 8.38685C76.7143 7.86506 76.3172 7.88437 75.9542 8.73904ZM83.982 21.4895L79.5509 21.009L80.423 12.9688L84.854 13.4494L83.982 21.4895ZM82.9236 31.3443C82.5333 34.8469 82.2355 38.3596 82.3251 38.5876C82.4241 38.9206 82.6506 39.1323 83.4464 39.6553C85.582 41.0512 87.0784 43.4403 86.8715 45.3478L84.6092 66.2104L83.5086 76.5474L68.2375 74.8911L68.6221 71.252L71.4375 71.5573C75.5291 71.9803 79.3669 72.3238 79.5196 72.2572C79.6929 72.1928 79.9252 71.9685 80.0525 71.7536C80.3342 71.2644 82.6448 50.3047 82.4698 49.714C82.4007 49.4882 82.1945 49.1851 82.0115 49.0509C81.7919 48.8712 78.8534 48.4797 73.942 47.947L71.17 47.6256C71.5736 44.0482 71.1448 47.0162 71.8124 43.477C72.3446 40.9654 74.4588 39.5645 76.1247 38.8924C77.201 38.4581 77.3355 38.3687 77.5444 37.9756C77.6762 37.7196 78.127 34.2339 78.5014 30.7815L79.0216 25.8895L83.4527 26.3701L82.9236 31.3443ZM72.6526 52.8387L77.2018 53.3321L75.7146 67.0833L69.1514 66.3714C69.5328 62.8551 70.6844 52.6772 70.6844 52.6772C70.7186 52.6497 70.6844 52.6772 72.6526 52.8387Z" fill="#FF307A"></path><path d="M41.2222 63.8331L91.1546 57.7251L86.0467 81.2215L44.2035 88.2602L41.2222 63.8331Z" fill="white"></path><path fill-rule="evenodd" clip-rule="evenodd" d="M5.41477 68.4342C3.91204 68.7181 2.92401 70.1664 3.20794 71.6692C3.49186 73.1719 4.94022 74.1599 6.44295 73.876L25.8683 70.2058C27.371 69.9218 28.359 68.4735 28.0751 66.9708C27.7912 65.468 26.3428 64.48 24.8401 64.7639L5.41477 68.4342ZM19.5931 76.9199C18.1593 77.4609 17.4356 79.0618 17.9766 80.4955C18.5177 81.9293 20.1186 82.653 21.5523 82.1119L33.141 77.7388C34.5748 77.1978 35.2985 75.5969 34.7574 74.1632C34.2164 72.7294 32.6155 72.0057 31.1817 72.5468L19.5931 76.9199Z" fill="#11222C"></path><path fill-rule="evenodd" clip-rule="evenodd" d="M20.935 52.8964C20.935 52.8964 17.8509 53.594 18.49 56.3264C19.1292 59.0588 21.8024 58.5937 21.8024 58.5937L32.1363 56.3264L33.1821 63.5797C33.539 66.0556 35.8597 67.7556 38.3281 67.3492L41.5827 92.3886C39.0074 94.1922 37.3214 96.7946 37.3214 100.001C37.3214 104.722 41.2859 108.667 45.9989 108.667C48.4317 108.667 50.3996 107.845 52.1196 106.093C55.0595 103.152 55.1603 98.1402 52.3711 95.245L72.5639 94.7827C71.032 97.7176 71.8144 101.697 74.0767 103.898C76.3391 106.1 79.8101 106.89 82.7852 105.898C86.4422 104.674 88.9829 101.193 88.3398 96.3678C87.6967 91.5425 83.7944 89.3937 78.5666 89.6515C75.423 89.8065 47.5684 90.7037 47.5684 90.7037C47.5684 90.7037 81.822 85.2717 85.8901 84.5741C87.6334 84.2751 88.6965 83.237 89.028 81.7254C89.1177 81.3163 89.4847 79.6603 89.9894 77.3833C91.5308 70.429 94.3562 57.6813 94.4876 56.9659C94.6619 56.0164 93.674 54.3498 91.8727 54.3498L38.9658 61.2598L37.9564 54.1173C37.3172 51.6756 35.3416 50.2222 32.6108 50.2222C31.3321 50.2222 20.935 52.8964 20.935 52.8964ZM85.733 72.7136L84.3799 79.3418L79.5664 80.1511L80.1746 73.5478L85.733 72.7136ZM74.5235 74.3959L73.9461 80.665C73.9327 80.8109 73.9308 80.9552 73.9397 81.097L68.3392 82.0386V75.3241L74.5235 74.3959ZM80.6987 67.8575L86.9147 66.9246L88.2119 60.5704L81.283 61.5143L80.6987 67.8575ZM75.6392 62.2832L75.0477 68.7056L68.3392 69.7125V69.2122C68.3392 67.6798 67.0969 66.4375 65.5644 66.4375C64.032 66.4375 62.7897 67.6798 62.7897 69.2122V70.5453L56.3732 71.5083L55.509 65.0257L75.6392 62.2832ZM62.7897 76.1569V82.9715L58.0086 83.7753L57.1067 77.0098L62.7897 76.1569ZM51.6179 77.8336L45.8017 78.7065L46.687 85.6787L52.5328 84.6959L51.6179 77.8336ZM50.8845 72.3321L50.0103 65.7749L44.2592 66.5584L45.1025 73.1998L50.8845 72.3321ZM47.2075 97.086C49.5474 98.0782 49.7953 101.318 47.6259 102.667C46.0919 103.613 44.093 103.086 43.2562 101.504C42.7157 100.526 42.739 99.0251 43.4576 98.1402C44.3719 96.993 45.9214 96.5589 47.2075 97.086ZM81.4681 94.7827C83.7769 95.9764 83.8699 99.2398 81.6386 100.495C80.0462 101.367 77.6942 100.533 77.0441 98.7824C76.6567 97.7592 77.0674 96.2399 77.8112 95.4338C78.6479 94.5346 80.3524 94.2246 81.4681 94.7827Z" fill="#6E838E"></path><path d="M29.4291 13.424C24.5235 13.846 24.2899 21.9232 24.7863 25.9091C19.2499 21.126 15.1382 23.3159 14.2993 25.7638C11.6054 33.6255 22.0463 39.2099 25.98 41.0959C30.0705 43.0571 28.2444 45.8677 29.1033 46.0632C29.9622 46.2588 36.2485 41.0959 37.7512 31.1845C38.9776 23.0955 35.5611 12.8964 29.4291 13.424Z" fill="#FF307A"></path><path d="M159.118 37.7625C159.828 39.1812 160.182 40.2661 160.182 41.0171C160.182 41.4344 160.099 41.7265 159.932 41.8934C159.682 42.1855 158.993 42.6027 157.867 43.1452C156.74 43.6876 155.989 44.0423 155.613 44.2092C154.403 44.7516 152.588 45.9826 150.168 47.902C147.79 49.7797 145.536 51.7408 143.408 53.7854C141.322 55.7882 140.07 57.1861 139.653 57.9789C140.029 59.2724 141.03 61.0457 142.657 63.2989C144.285 65.5104 145.933 67.5133 147.602 69.3075C149.313 71.1017 150.418 71.9989 150.919 71.9989L151.545 72.0614C152.046 72.1449 152.63 72.6039 153.298 73.4384C153.965 74.2729 154.299 75.0449 154.299 75.7542C154.299 76.3384 153.944 76.6931 153.235 76.8182C152.776 76.9017 152.108 77.1103 151.232 77.4441C150.439 77.7362 149.667 77.8823 148.916 77.8823C148.04 77.8823 147.372 77.7779 146.913 77.5693C145.62 77.0269 143.909 75.7125 141.781 73.6262C139.695 71.4981 137.755 69.1198 135.96 66.491C134.166 63.8622 132.998 61.5464 132.455 59.5436L128.512 75.2535C128.22 76.4636 127.761 77.2772 127.135 77.6945C126.551 78.1117 125.424 78.3204 123.755 78.3204C122.462 78.3204 121.502 78.0909 120.876 77.6319C120.292 77.2146 120 76.4844 120 75.4413C120 74.9823 120.063 74.5442 120.188 74.1269L127.761 44.9603L127.573 38.3258C127.74 37.6165 128.262 37.0532 129.138 36.6359C130.056 36.2186 130.891 36.01 131.642 36.01C132.768 36.01 133.874 36.469 134.959 37.387C136.085 38.2632 136.67 39.3481 136.711 40.6416C136.711 41.5596 135.668 46.3164 133.582 54.912C135.042 52.9091 137.212 50.489 140.091 47.6516C143.012 44.8142 145.933 42.2898 148.854 40.0783C151.775 37.8668 154.069 36.615 155.739 36.3229C156.156 36.3229 156.761 36.4273 157.554 36.6359C158.346 36.8028 158.868 37.1783 159.118 37.7625Z" fill="#11222C"></path><path d="M169.533 78.8211C165.861 78.8211 163.003 77.5693 160.958 75.0657C158.914 72.5622 157.891 69.3701 157.891 65.4896C157.891 62.2349 158.663 59.1681 160.207 56.2889C161.793 53.4098 163.942 51.094 166.654 49.3415C169.366 47.589 172.35 46.7128 175.604 46.7128C178.817 46.7128 181.446 47.7768 183.491 49.9048C185.577 51.9911 186.62 55.0789 186.62 59.1681C186.62 62.0472 185.827 65.0306 184.242 68.1183C182.656 71.2061 180.528 73.7722 177.857 75.8168C175.229 77.8197 172.454 78.8211 169.533 78.8211ZM170.472 73.8139C171.807 73.8139 173.142 72.9794 174.478 71.3104C175.855 69.6413 176.981 67.5342 177.857 64.9889C178.734 62.4436 179.172 59.9608 179.172 57.5407C179.172 53.8271 177.628 51.9703 174.54 51.9703C172.829 51.9703 171.265 52.7839 169.846 54.4113C168.427 56.0386 167.301 58.0623 166.466 60.4824C165.632 62.8608 165.214 65.0932 165.214 67.1795C165.214 68.3895 165.486 69.5161 166.028 70.5593C166.571 71.5607 167.238 72.3535 168.031 72.9377C168.865 73.5219 169.679 73.8139 170.472 73.8139Z" fill="#11222C"></path><path d="M206.324 43.5207C205.489 43.5207 204.738 43.333 204.071 42.9574C203.445 42.5402 202.652 41.7056 201.692 40.4538L198.5 36.3229C198.083 35.7805 197.874 35.2589 197.874 34.7582C197.874 34.0906 198.187 33.5273 198.813 33.0683C199.481 32.5676 200.253 32.3172 201.129 32.3172C201.963 32.3172 202.756 32.7554 203.507 33.6316L206.95 37.7625C209.453 35.5927 211.289 34.0697 212.458 33.1935C213.668 32.3172 214.544 31.8791 215.086 31.8791C215.921 31.8791 216.651 32.0669 217.277 32.4424C217.945 32.8179 218.278 33.3187 218.278 33.9446C218.278 34.4035 218.195 34.8208 218.028 35.1963C217.903 35.5719 217.548 35.9891 216.964 36.4481L215.587 37.5747C212.458 40.1618 210.309 41.8934 209.14 42.7697C208.514 43.2704 207.576 43.5207 206.324 43.5207ZM208.702 53.2847C208.202 53.0343 207.576 52.9091 206.825 52.9091C204.947 52.9091 203.069 53.2847 201.192 54.0357C199.314 54.7868 198.375 55.7465 198.375 56.9148C198.375 57.7494 198.751 58.417 199.502 58.9177C200.253 59.4184 201.442 59.9817 203.069 60.6076C204.822 61.3169 206.24 61.9846 207.325 62.6105C208.41 63.2364 209.349 64.1543 210.142 65.3644C210.976 66.5327 211.394 68.0349 211.394 69.8708C211.394 72.8751 210.142 75.1909 207.638 76.8182C205.176 78.4038 201.859 79.1966 197.687 79.1966C195.642 79.1966 193.743 78.8837 191.991 78.2578C190.238 77.6319 188.841 76.8391 187.797 75.8794C186.796 74.878 186.254 73.8974 186.17 72.9377C186.17 71.9363 186.608 71.1226 187.484 70.4967C188.361 69.8291 189.592 69.391 191.177 69.1823C191.219 70.0169 191.657 70.8097 192.492 71.5607C193.326 72.2701 194.307 72.8542 195.433 73.3132C196.602 73.7305 197.603 73.9391 198.438 73.9391C199.856 73.9391 201.15 73.5636 202.318 72.8125C203.486 72.0197 204.071 71.1017 204.071 70.0586C204.071 68.1392 202.214 66.6162 198.5 65.4896C196.122 64.7802 194.286 63.6536 192.992 62.1097C191.741 60.5659 191.115 58.9386 191.115 57.2278C191.115 53.848 192.638 51.4278 195.684 49.9674C198.771 48.4653 202.694 47.7142 207.45 47.7142C210.121 47.7142 212.186 48.0272 213.647 48.653C215.107 49.2789 215.837 50.3638 215.837 51.9077C215.837 52.9508 215.441 53.8688 214.648 54.6616C213.897 55.4544 212.812 55.8508 211.394 55.8508C210.142 55.8508 209.328 55.7674 208.953 55.6005C208.619 55.3918 208.431 55.058 208.389 54.599C208.389 54.1818 208.494 53.7436 208.702 53.2847Z" fill="#11222C"></path><path d="M221.969 40.892C222.553 40.0157 223.659 38.7848 225.286 37.1992C226.955 35.6136 228.582 34.2158 230.168 33.0057C231.795 31.7539 232.838 31.128 233.297 31.128C234.174 31.128 235.175 31.5244 236.302 32.3172C237.428 33.11 237.992 33.8402 237.992 34.5079C237.992 35.0503 237.7 35.5927 237.115 36.1352C236.531 36.6776 235.342 37.5747 233.548 38.8265C231.002 40.6207 229.062 41.8725 227.727 42.5819C226.392 43.2495 225.182 43.5833 224.097 43.5833C223.304 43.5833 222.72 43.4373 222.344 43.1452C221.969 42.8531 221.781 42.3524 221.781 41.643C221.781 41.3092 221.844 41.0589 221.969 40.892ZM229.354 51.407C227.143 60.4198 225.453 67.2003 224.285 71.7485C224.118 72.3744 224.034 73.0837 224.034 73.8765L224.097 75.6916C224.097 76.401 223.867 76.9017 223.408 77.1938C222.991 77.4859 222.073 77.6528 220.654 77.6945C219.277 77.6945 218.234 77.5484 217.525 77.2564C216.816 76.9643 216.461 76.3384 216.461 75.3787C216.461 74.9197 216.982 72.4787 218.026 68.0557C219.111 63.6328 220.571 57.8745 222.407 50.7811L220.967 48.9034C220.842 48.7782 220.78 48.6322 220.78 48.4653C220.78 48.048 221.239 47.7142 222.157 47.4638C223.074 47.1718 224.347 47.0257 225.974 47.0257C226.934 47.0257 227.644 47.2552 228.103 47.7142C228.603 48.1315 228.895 48.5905 228.979 49.0912C229.104 49.5919 229.229 50.3638 229.354 51.407Z" fill="#11222C"></path><path d="M262.8 49.4667C262.967 49.7171 263.176 50.1969 263.426 50.9063C263.718 51.5739 263.864 52.0955 263.864 52.471C263.864 52.6796 263.843 52.8048 263.801 52.8465C263.593 53.0969 263.113 53.3055 262.362 53.4724C261.611 53.6393 261.11 53.7436 260.86 53.7854C259.566 54.6199 257.501 55.9551 254.663 57.7911C251.868 59.5853 249.823 60.8997 248.53 61.7342C248.613 62.7356 249.364 64.2795 250.783 66.3658C252.202 68.4104 253.725 70.3507 255.352 72.1866C256.979 74.0226 257.96 74.9406 258.294 74.9406C258.669 74.9406 259.128 75.2535 259.67 75.8794C260.255 76.5053 260.547 77.0686 260.547 77.5693C260.547 78.0283 260.255 78.3204 259.67 78.4456C259.295 78.529 258.586 78.6751 257.542 78.8837C256.541 79.0923 255.665 79.1966 254.914 79.1966C254.246 79.1966 253.725 79.1132 253.349 78.9463C252.389 78.6125 251.075 77.5067 249.406 75.629C247.779 73.7096 246.214 71.5816 244.712 69.2449C243.21 66.8665 242.229 64.822 241.77 63.1112C240.435 68.4939 239.496 72.1866 238.953 74.1895C238.411 76.1506 237.973 77.4233 237.639 78.0074C237.305 78.6333 236.909 78.9463 236.45 78.9463L234.697 79.0089C231.943 79.0089 230.504 77.9031 230.379 75.6916C231.213 73.647 231.797 71.9571 232.131 70.6219C236.262 55.3084 239.204 43.7711 240.956 36.01C240.915 35.3841 240.873 34.5287 240.831 33.4438C240.789 32.3172 240.769 31.441 240.769 30.8151C240.894 30.2726 241.353 29.8345 242.145 29.5007C242.98 29.1669 243.731 29 244.399 29C245.442 29 246.548 29.3547 247.716 30.064C248.884 30.7734 249.489 31.6288 249.531 32.6302L243.961 54.4738L242.897 58.7925C243.773 57.7076 245.254 56.3724 247.34 54.7868C249.468 53.2012 251.638 51.7825 253.85 50.5307C256.103 49.2789 257.897 48.5279 259.232 48.2775C259.566 48.2775 260.171 48.3818 261.047 48.5905C261.965 48.7991 262.55 49.0912 262.8 49.4667Z" fill="#11222C"></path><path d="M271.328 78.8211C270.076 78.6125 269.179 78.3621 268.636 78.07C268.094 77.8197 267.718 77.5067 267.51 77.1312C267.343 76.7556 267.176 76.1089 267.009 75.1909L266.946 74.7528C266.571 72.6248 266.175 68.619 265.757 62.7356C265.382 56.8105 265.194 52.5962 265.194 50.0926C265.194 49.425 265.528 48.8825 266.195 48.4653C266.905 48.0063 267.802 47.7768 268.887 47.7768C271.098 47.7768 272.204 48.7991 272.204 50.8437L272.454 59.481C272.705 65.0723 272.851 69.3701 272.892 72.3744C275.146 67.4924 277.92 62.1723 281.217 56.4141C284.555 50.6142 286.766 47.7142 287.851 47.7142C289.353 47.7142 290.584 47.9228 291.544 48.3401C292.546 48.7156 293.046 49.5502 293.046 50.8437C293.046 51.3027 292.608 52.2206 291.732 53.5976L286.224 62.3601C283.345 66.9917 281.133 70.4759 279.59 72.8125C278.046 75.1075 276.898 76.6096 276.147 77.319C275.688 77.7362 275.021 78.0909 274.144 78.383C273.268 78.6751 272.329 78.8211 271.328 78.8211Z" fill="#11222C"></path><path d="M297.856 40.892C298.44 40.0157 299.546 38.7848 301.173 37.1992C302.842 35.6136 304.469 34.2158 306.055 33.0057C307.682 31.7539 308.726 31.128 309.185 31.128C310.061 31.128 311.062 31.5244 312.189 32.3172C313.315 33.11 313.879 33.8402 313.879 34.5079C313.879 35.0503 313.587 35.5927 313.002 36.1352C312.418 36.6776 311.229 37.5747 309.435 38.8265C306.89 40.6207 304.949 41.8725 303.614 42.5819C302.279 43.2495 301.069 43.5833 299.984 43.5833C299.191 43.5833 298.607 43.4373 298.231 43.1452C297.856 42.8531 297.668 42.3524 297.668 41.643C297.668 41.3092 297.731 41.0589 297.856 40.892ZM305.241 51.407C303.03 60.4198 301.34 67.2003 300.172 71.7485C300.005 72.3744 299.921 73.0837 299.921 73.8765L299.984 75.6916C299.984 76.401 299.754 76.9017 299.295 77.1938C298.878 77.4859 297.96 77.6528 296.541 77.6945C295.165 77.6945 294.121 77.5484 293.412 77.2564C292.703 76.9643 292.348 76.3384 292.348 75.3787C292.348 74.9197 292.87 72.4787 293.913 68.0557C294.998 63.6328 296.458 57.8745 298.294 50.7811L296.854 48.9034C296.729 48.7782 296.667 48.6322 296.667 48.4653C296.667 48.048 297.126 47.7142 298.044 47.4638C298.962 47.1718 300.234 47.0257 301.862 47.0257C302.821 47.0257 303.531 47.2552 303.99 47.7142C304.49 48.1315 304.782 48.5905 304.866 49.0912C304.991 49.5919 305.116 50.3638 305.241 51.407Z" fill="#11222C"></path><path d="M313.714 47.1509C315.675 46.1077 317.302 45.5862 318.596 45.5862C320.015 45.5862 320.807 46.3164 320.974 47.7768L318.471 57.1026C321.225 53.1386 323.791 50.4055 326.169 48.9034C328.548 47.3595 330.676 46.5876 332.553 46.5876C334.765 46.5876 336.371 47.0049 337.373 47.8394C338.416 48.6322 338.958 49.9048 339 51.6573C337.581 55.4961 336.392 59.1472 335.432 62.6105C334.514 66.0737 334.055 69.2658 334.055 72.1866V73.6262C334.055 74.7945 333.722 75.5664 333.054 75.942C332.428 76.2758 331.155 76.4427 329.236 76.4427C328.485 76.4427 327.776 76.3175 327.108 76.0672C326.482 75.8168 326.169 75.3995 326.169 74.8154C326.169 73.1463 326.545 70.7053 327.296 67.4924C328.047 64.2795 328.881 61.1083 329.799 57.9789C330.759 54.8494 331.239 53.3681 331.239 53.535C331.239 52.9508 330.905 52.6588 330.237 52.6588C329.361 52.6588 327.943 53.4307 325.981 54.9746C324.02 56.5184 322.017 58.9386 319.973 62.2349C317.928 65.4896 316.301 69.5787 315.091 74.5024C315.049 74.7528 314.966 75.2118 314.841 75.8794C314.715 76.547 314.382 77.0269 313.839 77.319C313.297 77.5693 312.42 77.6945 311.21 77.6945C309.833 77.6945 308.811 77.5484 308.143 77.2564C307.476 76.9643 307.142 76.3384 307.142 75.3787L309.02 67.3673C309.52 65.1975 310.167 62.4436 310.96 59.1055C311.753 55.7256 312.671 51.7408 313.714 47.1509Z" fill="#11222C"></path></svg> 