<?xml version="1.0" encoding="utf-8"?> <svg xmlns="http://www.w3.org/2000/svg" xmlns:xlink="http://www.w3.org/1999/xlink" version="1.1" id="Layer_1" x="0px" y="0px" width="316.9px" height="77.9px" viewBox="0 0 316.9 77.9" style="enable-background:new 0 0 316.9 77.9;" xml:space="preserve"> <style type="text/css"> .st0{enable-background:new ;} .st1{fill:#34363A;} .st2{fill-rule:evenodd;clip-rule:evenodd;fill:#34363A;} </style> <g class="st0"> <path class="st1" d="M101.2,46.8c-1.2,3.4-4.9,7.1-10,7.1c-6.1,0-11.3-5.1-11.3-11.5c0-6.4,5.1-11.5,11.3-11.5 c5.9,0,10.8,4.7,10.8,11.5c0,1-0.2,2.2-0.2,2.2H86c0.5,2.2,2.2,3.9,5.1,3.9c2.9,0,4.2-1.7,4.2-1.7H101.2z M85.8,40.7h10.8 c-0.5-2.4-2.4-4.4-5.4-4.4C88.2,36.3,86.3,38.2,85.8,40.7z"></path> <path class="st1" d="M106.1,44.4V31.1h5.6v12.5c0,2.9,2,4.9,4.7,4.9s4.7-2,4.7-4.9V31.1h5.6v22.5h-4.2l-1-2.2c0,0-2.7,2.5-6.4,2.5 C109.8,53.9,106.1,50.2,106.1,44.4z"></path> <path class="st1" d="M143.4,31.1V37c0,0-0.7-0.2-2-0.2c-2.7,0-4.7,2-4.7,4.9v12h-5.6V31.1h4.2l1,2.5c0,0,2-2.7,5.4-2.7 C142.7,30.9,143.4,31.1,143.4,31.1z"></path> <path class="st1" d="M156.9,53.9c-6.1,0-11.3-5.1-11.3-11.5c0-6.4,5.1-11.5,11.3-11.5s11.3,5.1,11.3,11.5 C168.2,48.8,163,53.9,156.9,53.9z M156.9,48.5c3.2,0,5.6-2.5,5.6-6.1c0-3.7-2.4-6.1-5.6-6.1c-3.2,0-5.6,2.5-5.6,6.1 C151.3,46.1,153.7,48.5,156.9,48.5z"></path> <path class="st1" d="M193.9,42.4c0,6.6-4.9,11.5-10.5,11.5c-3.7,0-5.9-2.2-5.9-2.2v9.8h-5.6V31.1h4.2l1,2.2c0,0,2.4-2.5,6.4-2.5 C189,30.9,193.9,35.8,193.9,42.4z M182.6,48.5c3.2,0,5.6-2.5,5.6-6.1c0-3.7-2.4-6.1-5.6-6.1c-3.2,0-5.6,2.5-5.6,6.1 C177,46.1,179.4,48.5,182.6,48.5z"></path> <path class="st1" d="M208.1,53.9c-6.1,0-11.3-5.1-11.3-11.5c0-6.4,5.1-11.5,11.3-11.5c6.1,0,11.3,5.1,11.3,11.5 C219.4,48.8,214.2,53.9,208.1,53.9z M208.1,48.5c3.2,0,5.6-2.5,5.6-6.1c0-3.7-2.4-6.1-5.6-6.1c-3.2,0-5.6,2.5-5.6,6.1 C202.5,46.1,204.9,48.5,208.1,48.5z"></path> <path class="st1" d="M227.7,46.6c0.2,1.5,1.5,2.7,3.4,2.7s3.2-1.2,3.2-2.5c0-3.2-11.5-1.2-11.5-9.1c0-3.7,3.2-6.9,8.1-6.9 c5.4,0,8.3,2.9,8.8,6.9h-5.4c-0.2-1-1.5-2.2-3.2-2.2s-2.7,1-2.7,2.2c0,3.2,11.5,1.2,11.5,9.3c0,3.7-3.2,6.9-8.3,6.9 c-5.9,0-8.8-2.9-9.3-7.3H227.7z"></path> <path class="st1" d="M246.6,25.7h4.9v5.4h4.9v5.1h-4.9v9.3c0,2,1.2,3.2,3.2,3.2c1,0,1.5-0.2,1.5-0.2v4.9c0,0-1.2,0.5-2.7,0.5 c-4.4,0-7.6-3.2-7.6-8.1v-9.6h-3.4v-4.7h1.5c1.7,0,2.7-1,2.7-2.7V25.7z"></path> <path class="st1" d="M280.2,46.8c-1.2,3.4-4.9,7.1-10,7.1c-6.1,0-11.3-5.1-11.3-11.5c0-6.4,5.1-11.5,11.3-11.5 c5.9,0,10.8,4.7,10.8,11.5c0,1-0.2,2.2-0.2,2.2H265c0.5,2.2,2.2,3.9,5.1,3.9s4.2-1.7,4.2-1.7H280.2z M264.7,40.7h10.8 c-0.5-2.4-2.5-4.4-5.4-4.4S265.2,38.2,264.7,40.7z"></path> <path class="st1" d="M297.1,31.1V37c0,0-0.7-0.2-2-0.2c-2.7,0-4.7,2-4.7,4.9v12h-5.6V31.1h4.2l1,2.5c0,0,2-2.7,5.4-2.7 C296.4,30.9,297.1,31.1,297.1,31.1z"></path> <path class="st1" d="M304.7,46.6c0.2,1.5,1.5,2.7,3.4,2.7s3.2-1.2,3.2-2.5c0-3.2-11.5-1.2-11.5-9.1c0-3.7,3.2-6.9,8.1-6.9 c5.4,0,8.3,2.9,8.8,6.9h-5.4c-0.2-1-1.5-2.2-3.2-2.2s-2.7,1-2.7,2.2c0,3.2,11.5,1.2,11.5,9.3c0,3.7-3.2,6.9-8.3,6.9 c-5.9,0-8.8-2.9-9.3-7.3H304.7z"></path> </g> <g id="logo_1_"> <g id="Tvar_2_2_" transform="translate(11.112 10.989)"> <g id="Tvar_2_3_"> <g id="Group_2_1_"> <path id="Path_12_1_" class="st2" d="M0,0v66.9h5.4V5.3h40v56.4H14.7v5.2h36V0H0z"></path> </g> </g> </g> <g id="Tvar_4_2_"> <g id="Tvar_4_3_"> <g id="Group_3_1_"> <path id="Path_13_1_" class="st1" d="M0,0v66.9h5.6V5.5h39.9V7h5.2V0H0z M45.4,61.7H20.1v5.2h30.5V20h-5.2V61.7z"></path> </g> </g> </g> </g> </svg> 